<?xml version="1.0" encoding="utf-8"?>
<!-- Generator: Adobe Illustrator 16.0.0, SVG Export Plug-In . SVG Version: 6.00 Build 0)  -->
<!DOCTYPE svg PUBLIC "-//W3C//DTD SVG 1.1//EN" "http://www.w3.org/Graphics/SVG/1.1/DTD/svg11.dtd">
<svg version="1.1" id="Layer_1" xmlns="http://www.w3.org/2000/svg" xmlns:xlink="http://www.w3.org/1999/xlink" x="0px" y="0px"
	 width="46.353px" height="11.75px" viewBox="0 0 46.353 11.75" enable-background="new 0 0 46.353 11.75" xml:space="preserve">
<path fill="#FFFFFF" stroke="#231F20" stroke-miterlimit="10" d="M445.161,43.449"/>
<g>
	<path fill="#F4CC92" d="M0.24,7.133c0.636,0.971,1.631,2.099,3.322,2.099c1.211,0,2.135-0.492,2.135-1.883
		c0-1.176-0.72-1.56-2.579-2.099C1.787,4.854,0.348,4.254,0.348,2.695c0-1.007,0.636-2.183,2.567-2.183
		c0.863,0,1.379,0.324,1.691,0.324c0.06,0,0.108,0,0.144-0.024l0.587-0.216l0.78,2.159l-0.18,0.12
		c-0.708-1.188-1.679-2.063-3.07-2.063c-0.971,0-1.871,0.444-1.871,1.679c0,1.271,1.175,1.751,2.446,2.099
		C5.061,5.034,6.38,5.586,6.38,7.121c0,1.691-1.247,2.411-2.782,2.411c-0.852,0-1.607-0.384-1.883-0.384
		c-0.264,0-0.611,0.168-0.875,0.36L0,7.229L0.24,7.133z"/>
	<path fill="#F4CC92" d="M13.341,8.944c-0.252,0.336-0.492,0.588-0.959,0.588c-0.54,0-0.648-0.396-0.648-0.815
		c-0.503,0.468-1.079,0.815-2.051,0.815c-1.163,0-1.691-0.612-1.691-1.391c0-1.067,1.247-1.883,3.742-2.267V5.022
		c0-0.719-0.348-1.199-1.067-1.199c-0.911,0-1.271,0.252-1.487,0.864C9.083,4.95,8.951,5.19,8.651,5.19
		c-0.312,0-0.48-0.192-0.48-0.516c0-0.6,0.983-1.139,2.555-1.139c1.043,0,1.727,0.552,1.727,1.595v3.322
		c0,0.36,0.036,0.648,0.228,0.648c0.156,0,0.324-0.048,0.552-0.276L13.341,8.944z M11.733,6.198c-1.607,0.18-2.95,0.839-2.95,1.919
		c0,0.54,0.408,0.936,1.127,0.936c0.875,0,1.319-0.204,1.823-0.684V6.198z"/>
	<path fill="#F4CC92" d="M14.279,3.607h2.279v0.3c-0.503,0-0.671,0.06-0.671,0.24c0,0.048,0.012,0.12,0.048,0.204l1.703,3.682
		l1.523-3.562c0.036-0.084,0.048-0.168,0.048-0.24c0-0.216-0.192-0.324-0.72-0.324v-0.3h2.075v0.3c-0.612,0-0.863,0.12-1.188,0.852
		L17.218,9.76c-0.432,1.091-0.863,1.271-1.559,1.271c-0.624,0-0.839-0.3-0.839-0.611c0-0.312,0.204-0.6,0.576-0.6
		c0.563,0,0.348,0.671,0.863,0.671c0.24,0,0.48-0.384,0.731-0.996l0.24-0.54l-2.099-4.677c-0.132-0.228-0.24-0.372-0.852-0.372
		V3.607z"/>
	<path fill="#F4CC92" d="M27.886,9.34v-0.3c1.043,0,1.248-0.192,1.248-0.684V5.886L26.795,1.52c-0.276-0.384-0.42-0.503-1.199-0.503
		v-0.3h3.094v0.3c-0.852,0-1.139,0.072-1.139,0.276c0,0.072,0.024,0.156,0.084,0.251l2.051,3.838l2.051-3.61
		c0.06-0.132,0.108-0.252,0.108-0.348c0-0.288-0.312-0.408-1.164-0.408v-0.3h2.711v0.3c-0.852,0-1.02,0.24-1.344,0.863l-2.159,3.814
		v2.674c0,0.48,0.228,0.672,1.248,0.672v0.3H27.886z"/>
	<path fill="#F4CC92" d="M35.243,6.33c0,2.087,1.043,2.782,2.195,2.782c0.936,0,1.655-0.384,2.255-1.139l0.167,0.144
		c-0.527,0.779-1.235,1.415-2.59,1.415c-1.667,0-2.794-1.199-2.794-3.01c0-1.667,1.079-2.986,2.734-2.986
		c1.583,0,2.566,1.02,2.566,2.794H35.243z M38.997,5.994c-0.072-1.499-0.72-2.171-1.799-2.171c-1.02,0-1.883,0.924-1.955,2.171
		H38.997z"/>
	<path fill="#F4CC92" d="M41.724,7.613c0.54,0.731,1.307,1.595,2.638,1.595c0.792,0,1.391-0.456,1.391-1.235
		c0-0.552-0.432-0.852-1.691-1.248c-1.871-0.576-2.303-1.091-2.303-1.871c0-0.732,0.72-1.319,1.871-1.319
		c0.66,0,1.043,0.216,1.283,0.216c0.048,0,0.084-0.012,0.12-0.024l0.444-0.204l0.684,1.715l-0.204,0.096
		c-0.264-0.479-1.163-1.499-2.327-1.499c-0.744,0-1.259,0.36-1.259,1.02c0,0.587,0.6,0.839,1.691,1.175
		c1.643,0.503,2.291,0.983,2.291,1.943c0,1.067-0.995,1.559-1.991,1.559c-0.684,0-1.079-0.24-1.415-0.24c-0.06,0-0.12,0-0.18,0.024
		L42.275,9.52L41.58,7.685L41.724,7.613z"/>
</g>
</svg>
